# MagicaVoxel @ Ephtracy

# group
o 

# material
mtllib 01111111v.mtl
usemtl palette

# normals
vn -1 0 0
vn 1 0 0
vn 0 0 1
vn 0 0 -1
vn 0 -1 0
vn 0 1 0

# texcoords
vt 0.306641 0.5

# verts
v -0.5 0 0.5
v -0.5 0 -0.5
v -0.5 1 0.5
v -0.5 1 -0.5
v 0 0.875 -0.375
v 0 0.875 -0.5
v 0 1 -0.375
v 0 1 -0.5
v 0.125 0.75 -0.375
v 0.125 0.75 -0.5
v 0.125 0.875 -0.25
v 0.125 0.875 -0.375
v 0.125 0.875 -0.5
v 0.125 1 -0.25
v 0.125 1 -0.375
v 0.25 0.625 -0.375
v 0.25 0.625 -0.5
v 0.25 0.75 -0.25
v 0.25 0.75 -0.375
v 0.25 0.75 -0.5
v 0.25 0.875 -0.125
v 0.25 0.875 -0.25
v 0.25 0.875 -0.375
v 0.25 1 -0.125
v 0.25 1 -0.25
v 0.375 0.5 -0.375
v 0.375 0.5 -0.5
v 0.375 0.625 -0.25
v 0.375 0.625 -0.375
v 0.375 0.625 -0.5
v 0.375 0.75 -0.125
v 0.375 0.75 -0.25
v 0.375 0.75 -0.375
v 0.375 0.875 0
v 0.375 0.875 -0.125
v 0.375 0.875 -0.25
v 0.375 1 0
v 0.375 1 -0.125
v 0.5 0 0.5
v 0.5 0 -0.5
v 0.5 0.5 -0.375
v 0.5 0.5 -0.5
v 0.5 0.625 -0.25
v 0.5 0.625 -0.375
v 0.5 0.75 -0.125
v 0.5 0.75 -0.25
v 0.5 0.875 0
v 0.5 0.875 -0.125
v 0.5 1 0.5
v 0.5 1 0
v -0.5 0 0.5
v -0.5 1 0.5
v 0.5 0 0.5
v 0.5 1 0.5
v 0.375 0.875 0
v 0.375 1 0
v 0.5 0.875 0
v 0.5 1 0
v 0.25 0.875 -0.125
v 0.25 1 -0.125
v 0.375 0.75 -0.125
v 0.375 0.875 -0.125
v 0.375 1 -0.125
v 0.5 0.75 -0.125
v 0.5 0.875 -0.125
v 0.125 0.875 -0.25
v 0.125 1 -0.25
v 0.25 0.75 -0.25
v 0.25 0.875 -0.25
v 0.25 1 -0.25
v 0.375 0.625 -0.25
v 0.375 0.75 -0.25
v 0.375 0.875 -0.25
v 0.5 0.625 -0.25
v 0.5 0.75 -0.25
v 0 0.875 -0.375
v 0 1 -0.375
v 0.125 0.75 -0.375
v 0.125 0.875 -0.375
v 0.125 1 -0.375
v 0.25 0.625 -0.375
v 0.25 0.75 -0.375
v 0.25 0.875 -0.375
v 0.375 0.5 -0.375
v 0.375 0.625 -0.375
v 0.375 0.75 -0.375
v 0.5 0.5 -0.375
v 0.5 0.625 -0.375
v -0.5 0 -0.5
v -0.5 1 -0.5
v 0 0.875 -0.5
v 0 1 -0.5
v 0.125 0.75 -0.5
v 0.125 0.875 -0.5
v 0.25 0.625 -0.5
v 0.25 0.75 -0.5
v 0.375 0.5 -0.5
v 0.375 0.625 -0.5
v 0.5 0 -0.5
v 0.5 0.5 -0.5
v -0.5 0 0.5
v 0.5 0 0.5
v -0.5 0 -0.5
v 0.5 0 -0.5
v 0.375 0.5 -0.375
v 0.5 0.5 -0.375
v 0.375 0.5 -0.5
v 0.5 0.5 -0.5
v 0.375 0.625 -0.25
v 0.5 0.625 -0.25
v 0.25 0.625 -0.375
v 0.375 0.625 -0.375
v 0.5 0.625 -0.375
v 0.25 0.625 -0.5
v 0.375 0.625 -0.5
v 0.375 0.75 -0.125
v 0.5 0.75 -0.125
v 0.25 0.75 -0.25
v 0.375 0.75 -0.25
v 0.5 0.75 -0.25
v 0.125 0.75 -0.375
v 0.25 0.75 -0.375
v 0.375 0.75 -0.375
v 0.125 0.75 -0.5
v 0.25 0.75 -0.5
v 0.375 0.875 0
v 0.5 0.875 0
v 0.25 0.875 -0.125
v 0.375 0.875 -0.125
v 0.5 0.875 -0.125
v 0.125 0.875 -0.25
v 0.25 0.875 -0.25
v 0.375 0.875 -0.25
v 0 0.875 -0.375
v 0.125 0.875 -0.375
v 0.25 0.875 -0.375
v 0 0.875 -0.5
v 0.125 0.875 -0.5
v -0.5 1 0.5
v 0.5 1 0.5
v 0.375 1 0
v 0.5 1 0
v 0.25 1 -0.125
v 0.375 1 -0.125
v 0.125 1 -0.25
v 0.25 1 -0.25
v 0 1 -0.375
v 0.125 1 -0.375
v -0.5 1 -0.5
v 0 1 -0.5

# faces
f 3/1/1 2/1/1 1/1/1
f 4/1/1 2/1/1 3/1/1
f 5/1/2 6/1/2 7/1/2
f 7/1/2 6/1/2 8/1/2
f 9/1/2 10/1/2 12/1/2
f 12/1/2 10/1/2 13/1/2
f 11/1/2 12/1/2 14/1/2
f 14/1/2 12/1/2 15/1/2
f 16/1/2 17/1/2 19/1/2
f 19/1/2 17/1/2 20/1/2
f 18/1/2 19/1/2 22/1/2
f 22/1/2 19/1/2 23/1/2
f 21/1/2 22/1/2 24/1/2
f 24/1/2 22/1/2 25/1/2
f 26/1/2 27/1/2 29/1/2
f 29/1/2 27/1/2 30/1/2
f 28/1/2 29/1/2 32/1/2
f 32/1/2 29/1/2 33/1/2
f 31/1/2 32/1/2 35/1/2
f 35/1/2 32/1/2 36/1/2
f 34/1/2 35/1/2 37/1/2
f 37/1/2 35/1/2 38/1/2
f 39/1/2 40/1/2 41/1/2
f 41/1/2 40/1/2 42/1/2
f 39/1/2 41/1/2 43/1/2
f 43/1/2 41/1/2 44/1/2
f 39/1/2 43/1/2 45/1/2
f 45/1/2 43/1/2 46/1/2
f 39/1/2 45/1/2 47/1/2
f 47/1/2 45/1/2 48/1/2
f 39/1/2 47/1/2 49/1/2
f 49/1/2 47/1/2 50/1/2
f 53/1/3 52/1/3 51/1/3
f 54/1/3 52/1/3 53/1/3
f 55/1/4 56/1/4 57/1/4
f 57/1/4 56/1/4 58/1/4
f 59/1/4 60/1/4 62/1/4
f 62/1/4 60/1/4 63/1/4
f 61/1/4 62/1/4 64/1/4
f 64/1/4 62/1/4 65/1/4
f 66/1/4 67/1/4 69/1/4
f 69/1/4 67/1/4 70/1/4
f 68/1/4 69/1/4 72/1/4
f 72/1/4 69/1/4 73/1/4
f 71/1/4 72/1/4 74/1/4
f 74/1/4 72/1/4 75/1/4
f 76/1/4 77/1/4 79/1/4
f 79/1/4 77/1/4 80/1/4
f 78/1/4 79/1/4 82/1/4
f 82/1/4 79/1/4 83/1/4
f 81/1/4 82/1/4 85/1/4
f 85/1/4 82/1/4 86/1/4
f 84/1/4 85/1/4 87/1/4
f 87/1/4 85/1/4 88/1/4
f 89/1/4 90/1/4 91/1/4
f 91/1/4 90/1/4 92/1/4
f 89/1/4 91/1/4 93/1/4
f 93/1/4 91/1/4 94/1/4
f 89/1/4 93/1/4 95/1/4
f 95/1/4 93/1/4 96/1/4
f 89/1/4 95/1/4 97/1/4
f 97/1/4 95/1/4 98/1/4
f 89/1/4 97/1/4 99/1/4
f 99/1/4 97/1/4 100/1/4
f 103/1/5 102/1/5 101/1/5
f 104/1/5 102/1/5 103/1/5
f 105/1/6 106/1/6 107/1/6
f 107/1/6 106/1/6 108/1/6
f 109/1/6 110/1/6 112/1/6
f 112/1/6 110/1/6 113/1/6
f 111/1/6 112/1/6 114/1/6
f 114/1/6 112/1/6 115/1/6
f 116/1/6 117/1/6 119/1/6
f 119/1/6 117/1/6 120/1/6
f 118/1/6 119/1/6 122/1/6
f 122/1/6 119/1/6 123/1/6
f 121/1/6 122/1/6 124/1/6
f 124/1/6 122/1/6 125/1/6
f 126/1/6 127/1/6 129/1/6
f 129/1/6 127/1/6 130/1/6
f 128/1/6 129/1/6 132/1/6
f 132/1/6 129/1/6 133/1/6
f 131/1/6 132/1/6 135/1/6
f 135/1/6 132/1/6 136/1/6
f 134/1/6 135/1/6 137/1/6
f 137/1/6 135/1/6 138/1/6
f 139/1/6 140/1/6 141/1/6
f 141/1/6 140/1/6 142/1/6
f 139/1/6 141/1/6 143/1/6
f 143/1/6 141/1/6 144/1/6
f 139/1/6 143/1/6 145/1/6
f 145/1/6 143/1/6 146/1/6
f 139/1/6 145/1/6 147/1/6
f 147/1/6 145/1/6 148/1/6
f 139/1/6 147/1/6 149/1/6
f 149/1/6 147/1/6 150/1/6
