# MagicaVoxel @ Ephtracy

# group
o 

# material
mtllib 10000000v.mtl
usemtl palette

# normals
vn -1 0 0
vn 1 0 0
vn 0 0 1
vn 0 0 -1
vn 0 -1 0
vn 0 1 0

# texcoords
vt 0.306641 0.5

# verts
v 0 0.875 -0.375
v 0 0.875 -0.5
v 0 1 -0.375
v 0 1 -0.5
v 0.125 0.75 -0.375
v 0.125 0.75 -0.5
v 0.125 0.875 -0.25
v 0.125 0.875 -0.375
v 0.125 0.875 -0.5
v 0.125 1 -0.25
v 0.125 1 -0.375
v 0.25 0.625 -0.375
v 0.25 0.625 -0.5
v 0.25 0.75 -0.25
v 0.25 0.75 -0.375
v 0.25 0.75 -0.5
v 0.25 0.875 -0.125
v 0.25 0.875 -0.25
v 0.25 0.875 -0.375
v 0.25 1 -0.125
v 0.25 1 -0.25
v 0.375 0.5 -0.375
v 0.375 0.5 -0.5
v 0.375 0.625 -0.25
v 0.375 0.625 -0.375
v 0.375 0.625 -0.5
v 0.375 0.75 -0.125
v 0.375 0.75 -0.25
v 0.375 0.75 -0.375
v 0.375 0.875 0
v 0.375 0.875 -0.125
v 0.375 0.875 -0.25
v 0.375 1 0
v 0.375 1 -0.125
v 0.5 0.5 -0.375
v 0.5 0.5 -0.5
v 0.5 0.625 -0.25
v 0.5 0.625 -0.375
v 0.5 0.75 -0.125
v 0.5 0.75 -0.25
v 0.5 0.875 0
v 0.5 0.875 -0.125
v 0.5 1 0
v 0.5 1 -0.5
v 0.375 0.875 0
v 0.375 1 0
v 0.5 0.875 0
v 0.5 1 0
v 0.25 0.875 -0.125
v 0.25 1 -0.125
v 0.375 0.75 -0.125
v 0.375 0.875 -0.125
v 0.375 1 -0.125
v 0.5 0.75 -0.125
v 0.5 0.875 -0.125
v 0.125 0.875 -0.25
v 0.125 1 -0.25
v 0.25 0.75 -0.25
v 0.25 0.875 -0.25
v 0.25 1 -0.25
v 0.375 0.625 -0.25
v 0.375 0.75 -0.25
v 0.375 0.875 -0.25
v 0.5 0.625 -0.25
v 0.5 0.75 -0.25
v 0 0.875 -0.375
v 0 1 -0.375
v 0.125 0.75 -0.375
v 0.125 0.875 -0.375
v 0.125 1 -0.375
v 0.25 0.625 -0.375
v 0.25 0.75 -0.375
v 0.25 0.875 -0.375
v 0.375 0.5 -0.375
v 0.375 0.625 -0.375
v 0.375 0.75 -0.375
v 0.5 0.5 -0.375
v 0.5 0.625 -0.375
v 0 0.875 -0.5
v 0 1 -0.5
v 0.125 0.75 -0.5
v 0.125 0.875 -0.5
v 0.25 0.625 -0.5
v 0.25 0.75 -0.5
v 0.375 0.5 -0.5
v 0.375 0.625 -0.5
v 0.5 0.5 -0.5
v 0.5 1 -0.5
v 0.375 0.5 -0.375
v 0.5 0.5 -0.375
v 0.375 0.5 -0.5
v 0.5 0.5 -0.5
v 0.375 0.625 -0.25
v 0.5 0.625 -0.25
v 0.25 0.625 -0.375
v 0.375 0.625 -0.375
v 0.5 0.625 -0.375
v 0.25 0.625 -0.5
v 0.375 0.625 -0.5
v 0.375 0.75 -0.125
v 0.5 0.75 -0.125
v 0.25 0.75 -0.25
v 0.375 0.75 -0.25
v 0.5 0.75 -0.25
v 0.125 0.75 -0.375
v 0.25 0.75 -0.375
v 0.375 0.75 -0.375
v 0.125 0.75 -0.5
v 0.25 0.75 -0.5
v 0.375 0.875 0
v 0.5 0.875 0
v 0.25 0.875 -0.125
v 0.375 0.875 -0.125
v 0.5 0.875 -0.125
v 0.125 0.875 -0.25
v 0.25 0.875 -0.25
v 0.375 0.875 -0.25
v 0 0.875 -0.375
v 0.125 0.875 -0.375
v 0.25 0.875 -0.375
v 0 0.875 -0.5
v 0.125 0.875 -0.5
v 0.375 1 0
v 0.5 1 0
v 0.25 1 -0.125
v 0.375 1 -0.125
v 0.125 1 -0.25
v 0.25 1 -0.25
v 0 1 -0.375
v 0.125 1 -0.375
v 0 1 -0.5
v 0.5 1 -0.5

# faces
f 3/1/1 2/1/1 1/1/1
f 4/1/1 2/1/1 3/1/1
f 8/1/1 6/1/1 5/1/1
f 9/1/1 6/1/1 8/1/1
f 10/1/1 8/1/1 7/1/1
f 11/1/1 8/1/1 10/1/1
f 15/1/1 13/1/1 12/1/1
f 16/1/1 13/1/1 15/1/1
f 18/1/1 15/1/1 14/1/1
f 19/1/1 15/1/1 18/1/1
f 20/1/1 18/1/1 17/1/1
f 21/1/1 18/1/1 20/1/1
f 25/1/1 23/1/1 22/1/1
f 26/1/1 23/1/1 25/1/1
f 28/1/1 25/1/1 24/1/1
f 29/1/1 25/1/1 28/1/1
f 31/1/1 28/1/1 27/1/1
f 32/1/1 28/1/1 31/1/1
f 33/1/1 31/1/1 30/1/1
f 34/1/1 31/1/1 33/1/1
f 35/1/2 36/1/2 38/1/2
f 37/1/2 38/1/2 40/1/2
f 39/1/2 40/1/2 42/1/2
f 41/1/2 42/1/2 43/1/2
f 38/1/2 36/1/2 44/1/2
f 43/1/2 42/1/2 44/1/2
f 40/1/2 38/1/2 44/1/2
f 42/1/2 40/1/2 44/1/2
f 47/1/3 46/1/3 45/1/3
f 48/1/3 46/1/3 47/1/3
f 52/1/3 50/1/3 49/1/3
f 53/1/3 50/1/3 52/1/3
f 54/1/3 52/1/3 51/1/3
f 55/1/3 52/1/3 54/1/3
f 59/1/3 57/1/3 56/1/3
f 60/1/3 57/1/3 59/1/3
f 62/1/3 59/1/3 58/1/3
f 63/1/3 59/1/3 62/1/3
f 64/1/3 62/1/3 61/1/3
f 65/1/3 62/1/3 64/1/3
f 69/1/3 67/1/3 66/1/3
f 70/1/3 67/1/3 69/1/3
f 72/1/3 69/1/3 68/1/3
f 73/1/3 69/1/3 72/1/3
f 75/1/3 72/1/3 71/1/3
f 76/1/3 72/1/3 75/1/3
f 77/1/3 75/1/3 74/1/3
f 78/1/3 75/1/3 77/1/3
f 79/1/4 80/1/4 82/1/4
f 81/1/4 82/1/4 84/1/4
f 83/1/4 84/1/4 86/1/4
f 85/1/4 86/1/4 87/1/4
f 82/1/4 80/1/4 88/1/4
f 87/1/4 86/1/4 88/1/4
f 84/1/4 82/1/4 88/1/4
f 86/1/4 84/1/4 88/1/4
f 91/1/5 90/1/5 89/1/5
f 92/1/5 90/1/5 91/1/5
f 96/1/5 94/1/5 93/1/5
f 97/1/5 94/1/5 96/1/5
f 98/1/5 96/1/5 95/1/5
f 99/1/5 96/1/5 98/1/5
f 103/1/5 101/1/5 100/1/5
f 104/1/5 101/1/5 103/1/5
f 106/1/5 103/1/5 102/1/5
f 107/1/5 103/1/5 106/1/5
f 108/1/5 106/1/5 105/1/5
f 109/1/5 106/1/5 108/1/5
f 113/1/5 111/1/5 110/1/5
f 114/1/5 111/1/5 113/1/5
f 116/1/5 113/1/5 112/1/5
f 117/1/5 113/1/5 116/1/5
f 119/1/5 116/1/5 115/1/5
f 120/1/5 116/1/5 119/1/5
f 121/1/5 119/1/5 118/1/5
f 122/1/5 119/1/5 121/1/5
f 123/1/6 124/1/6 126/1/6
f 125/1/6 126/1/6 128/1/6
f 127/1/6 128/1/6 130/1/6
f 129/1/6 130/1/6 131/1/6
f 126/1/6 124/1/6 132/1/6
f 131/1/6 130/1/6 132/1/6
f 128/1/6 126/1/6 132/1/6
f 130/1/6 128/1/6 132/1/6
